<svg width="46" height="46" viewBox="0 0 46 46" fill="none" xmlns="http://www.w3.org/2000/svg">
<g clip-path="url(#clip0_127_466)">
<path d="M23 0C16.9 0 11.0499 2.42321 6.73654 6.73654C2.42321 11.0499 0 16.9 0 23C0 29.1 2.42321 34.9501 6.73654 39.2635C11.0499 43.5768 16.9 46 23 46C29.1 46 34.9501 43.5768 39.2635 39.2635C43.5768 34.9501 46 29.1 46 23C46 16.9 43.5768 11.0499 39.2635 6.73654C34.9501 2.42321 29.1 0 23 0V0ZM33.0625 21.5625C33.4437 21.5625 33.8094 21.714 34.079 21.9835C34.3485 22.2531 34.5 22.6188 34.5 23C34.5 23.3812 34.3485 23.7469 34.079 24.0165C33.8094 24.2861 33.4437 24.4375 33.0625 24.4375H16.4076L22.5802 30.6073C22.7139 30.7409 22.8199 30.8996 22.8923 31.0742C22.9646 31.2488 23.0018 31.436 23.0018 31.625C23.0018 31.814 22.9646 32.0012 22.8923 32.1758C22.8199 32.3504 22.7139 32.5091 22.5802 32.6427C22.4466 32.7764 22.2879 32.8824 22.1133 32.9548C21.9387 33.0271 21.7515 33.0643 21.5625 33.0643C21.3735 33.0643 21.1863 33.0271 21.0117 32.9548C20.8371 32.8824 20.6784 32.7764 20.5448 32.6427L11.9198 24.0177C11.7859 23.8842 11.6797 23.7256 11.6072 23.5509C11.5347 23.3763 11.4974 23.1891 11.4974 23C11.4974 22.8109 11.5347 22.6237 11.6072 22.4491C11.6797 22.2744 11.7859 22.1158 11.9198 21.9823L20.5448 13.3573C20.8147 13.0873 21.1808 12.9357 21.5625 12.9357C21.9442 12.9357 22.3103 13.0873 22.5802 13.3573C22.8502 13.6272 23.0018 13.9933 23.0018 14.375C23.0018 14.7567 22.8502 15.1228 22.5802 15.3927L16.4076 21.5625H33.0625Z" fill="#17CFB0"/>
</g>
<defs>
<clipPath id="clip0_127_466">
<rect width="46" height="46" fill="white"/>
</clipPath>
</defs>
</svg>
