<svg width="1440" height="320" viewBox="0 0 1440 320" fill="none" xmlns="http://www.w3.org/2000/svg">
<path d="M0 32L48 48C96 64 192 96 288 117.3C384 139 480 149 576 144C672 139 768 117 864 90.7C960 64 1056 32 1152 37.3C1248 43 1344 85 1392 106.7L1440 128V320H1392C1344 320 1248 320 1152 320C1056 320 960 320 864 320C768 320 672 320 576 320C480 320 384 320 288 320C192 320 96 320 48 320H0V32Z" fill="#00CBA9"/>
<path d="M0 32L48 48C96 64 192 96 288 117.3C384 139 480 149 576 144C672 139 768 117 864 90.7C960 64 1056 32 1152 37.3C1248 43 1344 85 1392 106.7L1440 128V320H1392C1344 320 1248 320 1152 320C1056 320 960 320 864 320C768 320 672 320 576 320C480 320 384 320 288 320C192 320 96 320 48 320H0V32Z" fill="url(#paint0_linear_39_10)" fill-opacity="0.3"/>
<defs>
<linearGradient id="paint0_linear_39_10" x1="720" y1="32" x2="720" y2="320" gradientUnits="userSpaceOnUse">
<stop stop-color="white"/>
<stop offset="0.974964" stop-color="white" stop-opacity="0"/>
</linearGradient>
</defs>
</svg>
