<svg width="34" height="34" viewBox="0 0 34 34" fill="none" xmlns="http://www.w3.org/2000/svg">
<path d="M17 2.125C20.9451 2.125 24.7286 3.69218 27.5182 6.48179C30.3078 9.27139 31.875 13.0549 31.875 17C31.875 20.9451 30.3078 24.7286 27.5182 27.5182C24.7286 30.3078 20.9451 31.875 17 31.875C13.0549 31.875 9.27139 30.3078 6.48179 27.5182C3.69218 24.7286 2.125 20.9451 2.125 17C2.125 13.0549 3.69218 9.27139 6.48179 6.48179C9.27139 3.69218 13.0549 2.125 17 2.125ZM17 29.75C20.3815 29.75 23.6245 28.4067 26.0156 26.0156C28.4067 23.6245 29.75 20.3815 29.75 17C29.75 13.6185 28.4067 10.3755 26.0156 7.98439C23.6245 5.5933 20.3815 4.25 17 4.25C13.6185 4.25 10.3755 5.5933 7.98439 7.98439C5.5933 10.3755 4.25 13.6185 4.25 17C4.25 20.3815 5.5933 23.6245 7.98439 26.0156C10.3755 28.4067 13.6185 29.75 17 29.75ZM15.4062 21.5284L22.1999 17L15.4062 12.4716V21.5284ZM15.759 10.1511L24.0422 15.674C24.2605 15.8195 24.4395 16.0167 24.5633 16.248C24.6871 16.4794 24.7518 16.7376 24.7518 17C24.7518 17.2624 24.6871 17.5206 24.5633 17.752C24.4395 17.9833 24.2605 18.1805 24.0422 18.326L15.759 23.8489C15.519 24.0089 15.24 24.1007 14.9519 24.1147C14.6638 24.1286 14.3773 24.064 14.123 23.9279C13.8687 23.7918 13.6561 23.5893 13.5078 23.3418C13.3596 23.0944 13.2813 22.8113 13.2812 22.5229V11.475C13.2813 11.1865 13.3596 10.9035 13.5078 10.6561C13.6561 10.4086 13.8687 10.206 14.123 10.0699C14.3773 9.93383 14.6638 9.8693 14.9519 9.88322C15.24 9.89715 15.519 9.98901 15.759 10.149V10.1511Z" fill="white"/>
</svg>
